<?xml version="1.0" encoding="UTF-8"?><svg xmlns="http://www.w3.org/2000/svg" xmlns:xlink="http://www.w3.org/1999/xlink" contentScriptType="text/ecmascript" width="187.5" zoomAndPan="magnify" contentStyleType="text/css" viewBox="0 0 187.5 187.499995" height="187.499995" preserveAspectRatio="xMidYMid meet" version="1.0"><defs><clipPath id="clip-0"><path d="M 18.75 18.75 L 168.75 18.75 L 168.75 163.5 L 18.75 163.5 Z M 18.75 18.75 " clip-rule="nonzero"/></clipPath></defs><g clip-path="url(#clip-0)"><path fill="rgb(0%, 0%, 0%)" d="M 93.75 18.75 C 88.246094 18.75 80.386719 20.464844 75.488281 23.761719 C 66.183594 24.09375 59.808594 30.625 58.773438 40.96875 C 58.128906 47.351562 58.714844 51.925781 59.105469 54.945312 C 59.242188 56 59.390625 57.191406 59.339844 57.539062 C 59.261719 58 59.183594 58.464844 59.117188 58.945312 C 58.707031 58.964844 58.335938 59.023438 58.023438 59.109375 C 55.777344 59.703125 54.195312 61.714844 53.570312 64.753906 C 53.074219 67.191406 53.230469 70.15625 54.019531 73.097656 C 55.359375 78.082031 58.160156 81.824219 61.226562 82.976562 C 62.71875 87.539062 64.886719 92.070312 67.550781 96.203125 L 34.410156 112.035156 C 24.914062 116.570312 18.78125 126.289062 18.78125 136.796875 L 18.78125 156.011719 C 18.78125 160.136719 22.148438 163.5 26.277344 163.5 L 161.222656 163.5 C 165.351562 163.5 168.71875 160.136719 168.71875 156.011719 L 168.71875 136.796875 C 168.71875 126.289062 162.585938 116.570312 153.089844 112.035156 L 119.941406 96.203125 C 122.613281 92.070312 124.773438 87.539062 126.273438 82.976562 C 129.332031 81.824219 132.140625 78.082031 133.46875 73.097656 C 134.261719 70.15625 134.425781 67.191406 133.929688 64.753906 C 133.304688 61.714844 131.722656 59.703125 129.46875 59.109375 C 129.164062 59.023438 128.792969 58.964844 128.382812 58.945312 C 128.03125 56.273438 127.359375 53.777344 126.089844 50.367188 C 126.058594 50.269531 126.03125 50.179688 126 50.101562 C 126.878906 50.171875 128.296875 50.53125 129.449219 51 C 130.316406 51.359375 131.300781 51.203125 132.015625 50.609375 C 132.71875 50.015625 133.050781 49.078125 132.84375 48.160156 C 128.824219 29.746094 115.136719 18.75 96.25 18.75 Z M 93.75 23.742188 L 96.25 23.742188 C 111.417969 23.742188 122.371094 31.480469 126.859375 45.160156 C 125.144531 44.964844 123.347656 45.179688 122.125 46.359375 C 121.167969 47.265625 120.273438 49.011719 121.402344 52.089844 C 122.945312 56.273438 123.503906 58.75 123.660156 62.257812 C 123.707031 63.15625 124.226562 63.957031 125.027344 64.363281 C 125.816406 64.765625 126.761719 64.726562 127.523438 64.226562 C 127.925781 63.976562 128.140625 63.9375 128.1875 63.9375 C 128.335938 63.992188 128.773438 64.511719 129.039062 65.75 C 129.378906 67.425781 129.234375 69.628906 128.65625 71.8125 C 127.417969 76.40625 125.066406 78.34375 124.324219 78.34375 C 123.21875 78.34375 122.242188 79.074219 121.929688 80.128906 C 117.714844 94.273438 106.683594 108.59375 93.75 108.59375 C 80.816406 108.59375 69.785156 94.273438 65.578125 80.128906 C 65.257812 79.074219 64.289062 78.34375 63.175781 78.34375 C 62.445312 78.34375 60.082031 76.40625 58.851562 71.8125 C 58.265625 69.628906 58.128906 67.425781 58.472656 65.75 C 58.734375 64.480469 59.195312 63.964844 59.3125 63.9375 C 59.3125 63.9375 59.527344 63.9375 59.984375 64.226562 C 60.738281 64.714844 61.695312 64.773438 62.484375 64.363281 C 63.285156 63.957031 63.800781 63.15625 63.839844 62.257812 C 63.898438 60.953125 64.046875 59.65625 64.269531 58.40625 C 64.457031 57.335938 64.308594 56.136719 64.074219 54.3125 C 63.714844 51.515625 63.167969 47.285156 63.753906 41.453125 C 64.554688 33.488281 69.230469 28.734375 76.304688 28.734375 C 76.84375 28.734375 77.371094 28.558594 77.808594 28.234375 C 81.226562 25.671875 88.078125 23.742188 93.75 23.742188 Z M 80.074219 39.027344 C 78.289062 38.871094 76.492188 39.691406 75.46875 41.25 L 71.453125 47.324219 C 70.695312 48.472656 71.015625 50.023438 72.167969 50.785156 C 72.585938 51.058594 73.066406 51.195312 73.535156 51.195312 C 74.355469 51.195312 75.144531 50.804688 75.632812 50.074219 L 79.644531 44 L 83.539062 45.898438 C 90.65625 49.371094 98.601562 51.195312 106.519531 51.195312 L 112.910156 51.195312 C 114.296875 51.195312 115.410156 50.082031 115.410156 48.699219 C 115.410156 47.3125 114.296875 46.203125 112.910156 46.203125 L 106.519531 46.203125 C 99.363281 46.203125 92.167969 44.546875 85.734375 41.40625 L 81.832031 39.503906 C 81.265625 39.230469 80.667969 39.078125 80.074219 39.027344 Z M 70.519531 100.328125 C 76.65625 108.070312 84.757812 113.585938 93.75 113.585938 C 102.742188 113.585938 110.84375 108.070312 116.980469 100.328125 L 118.59375 101.097656 L 106.480469 135.910156 L 101.441406 125.871094 L 103.617188 119.367188 C 104.058594 118.0625 103.34375 116.648438 102.039062 116.207031 C 100.71875 115.769531 99.3125 116.480469 98.875 117.789062 L 96.953125 123.570312 L 90.546875 123.570312 L 88.625 117.789062 C 88.1875 116.480469 86.789062 115.769531 85.460938 116.207031 C 84.15625 116.648438 83.441406 118.0625 83.882812 119.367188 L 86.058594 125.871094 L 81.019531 135.910156 L 68.90625 101.097656 Z M 64.367188 103.261719 L 83.609375 158.507812 L 77.507812 158.507812 L 56.890625 131.054688 L 63.265625 122.566406 C 63.664062 122.039062 63.832031 121.375 63.734375 120.722656 L 61.441406 104.65625 Z M 123.132812 103.261719 L 126.058594 104.65625 L 123.765625 120.722656 C 123.667969 121.375 123.835938 122.039062 124.234375 122.566406 L 130.558594 130.988281 L 107.804688 158.507812 L 103.890625 158.507812 Z M 56.714844 106.917969 L 58.648438 120.410156 L 51.765625 129.566406 C 51.101562 130.441406 51.101562 131.671875 51.765625 132.546875 L 71.257812 158.507812 L 26.277344 158.507812 C 24.902344 158.507812 23.78125 157.386719 23.78125 156.011719 L 23.78125 136.796875 C 23.78125 128.210938 28.796875 120.246094 36.566406 116.539062 Z M 130.785156 106.917969 L 150.933594 116.539062 C 158.703125 120.246094 163.71875 128.199219 163.71875 136.796875 L 163.71875 156.011719 C 163.71875 157.386719 162.597656 158.507812 161.222656 158.507812 L 114.472656 158.507812 L 135.664062 132.636719 C 136.386719 131.75 136.417969 130.480469 135.722656 129.566406 L 128.851562 120.410156 Z M 90.292969 128.558594 L 97.207031 128.558594 L 104.007812 142.160156 C 104.058594 142.257812 104.136719 142.335938 104.203125 142.433594 L 98.894531 157.691406 C 98.796875 157.960938 98.777344 158.234375 98.777344 158.507812 L 88.722656 158.507812 C 88.722656 158.234375 88.714844 157.960938 88.617188 157.691406 L 83.285156 142.402344 C 83.355469 142.316406 83.441406 142.257812 83.492188 142.160156 Z M 31.277344 143.535156 C 29.890625 143.535156 28.777344 144.644531 28.777344 146.03125 L 28.777344 151.023438 C 28.777344 152.40625 29.890625 153.515625 31.277344 153.515625 C 32.664062 153.515625 33.777344 152.40625 33.777344 151.023438 L 33.777344 146.03125 C 33.777344 144.644531 32.664062 143.535156 31.277344 143.535156 Z M 43.773438 143.535156 C 42.386719 143.535156 41.273438 144.644531 41.273438 146.03125 L 41.273438 151.023438 C 41.273438 152.40625 42.386719 153.515625 43.773438 153.515625 C 45.15625 153.515625 46.269531 152.40625 46.269531 151.023438 L 46.269531 146.03125 C 46.269531 144.644531 45.15625 143.535156 43.773438 143.535156 Z M 56.265625 143.535156 C 54.878906 143.535156 53.765625 144.644531 53.765625 146.03125 L 53.765625 151.023438 C 53.765625 152.40625 54.878906 153.515625 56.265625 153.515625 C 57.652344 153.515625 58.765625 152.40625 58.765625 151.023438 L 58.765625 146.03125 C 58.765625 144.644531 57.652344 143.535156 56.265625 143.535156 Z M 131.234375 143.535156 C 129.847656 143.535156 128.734375 144.644531 128.734375 146.03125 L 128.734375 151.023438 C 128.734375 152.40625 129.847656 153.515625 131.234375 153.515625 C 132.621094 153.515625 133.734375 152.40625 133.734375 151.023438 L 133.734375 146.03125 C 133.734375 144.644531 132.621094 143.535156 131.234375 143.535156 Z M 143.726562 143.535156 C 142.34375 143.535156 141.230469 144.644531 141.230469 146.03125 L 141.230469 151.023438 C 141.230469 152.40625 142.34375 153.515625 143.726562 153.515625 C 145.113281 153.515625 146.226562 152.40625 146.226562 151.023438 L 146.226562 146.03125 C 146.226562 144.644531 145.113281 143.535156 143.726562 143.535156 Z M 156.222656 143.535156 C 154.835938 143.535156 153.722656 144.644531 153.722656 146.03125 L 153.722656 151.023438 C 153.722656 152.40625 154.835938 153.515625 156.222656 153.515625 C 157.609375 153.515625 158.722656 152.40625 158.722656 151.023438 L 158.722656 146.03125 C 158.722656 144.644531 157.609375 143.535156 156.222656 143.535156 Z M 156.222656 143.535156 " fill-opacity="1" fill-rule="nonzero"/></g></svg>