<?xml version="1.0" encoding="UTF-8"?><svg xmlns="http://www.w3.org/2000/svg" xmlns:xlink="http://www.w3.org/1999/xlink" contentScriptType="text/ecmascript" width="375" zoomAndPan="magnify" contentStyleType="text/css" viewBox="0 0 375 374.999991" height="374.999991" preserveAspectRatio="xMidYMid meet" version="1.0"><defs><clipPath id="clip-0"><path d="M 57 233 L 64 233 L 64 366.96875 L 57 366.96875 Z M 57 233 " clip-rule="nonzero"/></clipPath><clipPath id="clip-1"><path d="M 187 230 L 194 230 L 194 366.96875 L 187 366.96875 Z M 187 230 " clip-rule="nonzero"/></clipPath><clipPath id="clip-2"><path d="M 314 233 L 321 233 L 321 366.96875 L 314 366.96875 Z M 314 233 " clip-rule="nonzero"/></clipPath><clipPath id="clip-3"><path d="M 39 248 L 228 248 L 228 366.96875 L 39 366.96875 Z M 39 248 " clip-rule="nonzero"/></clipPath><clipPath id="clip-4"><path d="M 138 7.71875 L 188 7.71875 L 188 39 L 138 39 Z M 138 7.71875 " clip-rule="nonzero"/></clipPath><clipPath id="clip-5"><path d="M 88 353 L 101 353 L 101 366.96875 L 88 366.96875 Z M 88 353 " clip-rule="nonzero"/></clipPath><clipPath id="clip-6"><path d="M 32 353 L 46 353 L 46 366.96875 L 32 366.96875 Z M 32 353 " clip-rule="nonzero"/></clipPath><clipPath id="clip-7"><path d="M 144 353 L 157 353 L 157 366.96875 L 144 366.96875 Z M 144 353 " clip-rule="nonzero"/></clipPath><clipPath id="clip-8"><path d="M 199 7.71875 L 367 7.71875 L 367 126 L 199 126 Z M 199 7.71875 " clip-rule="nonzero"/></clipPath><clipPath id="clip-9"><path d="M 14 7.71875 L 120 7.71875 L 120 70 L 14 70 Z M 14 7.71875 " clip-rule="nonzero"/></clipPath><clipPath id="clip-10"><path d="M 39 248 L 289 248 L 289 366.96875 L 39 366.96875 Z M 39 248 " clip-rule="nonzero"/></clipPath><clipPath id="clip-11"><path d="M 199 7.71875 L 367 7.71875 L 367 27 L 199 27 Z M 199 7.71875 " clip-rule="nonzero"/></clipPath><clipPath id="clip-12"><path d="M 169 233 L 176 233 L 176 366.96875 L 169 366.96875 Z M 169 233 " clip-rule="nonzero"/></clipPath></defs><g clip-path="url(#clip-0)"><path fill="rgb(89.7995%, 40.779114%, 10.198975%)" d="M 60.765625 366.042969 C 59.054688 366.042969 57.671875 364.660156 57.671875 362.953125 L 57.671875 236.304688 C 57.671875 234.597656 59.054688 233.21875 60.765625 233.21875 C 62.472656 233.21875 63.855469 234.597656 63.855469 236.304688 L 63.855469 362.953125 C 63.855469 364.660156 62.472656 366.042969 60.765625 366.042969 " fill-opacity="1" fill-rule="nonzero"/></g><g clip-path="url(#clip-1)"><path fill="rgb(89.7995%, 40.779114%, 10.198975%)" d="M 190.664062 366.042969 C 188.953125 366.042969 187.570312 364.660156 187.570312 362.953125 L 187.570312 233.21875 C 187.570312 231.507812 188.953125 230.128906 190.664062 230.128906 C 192.371094 230.128906 193.753906 231.507812 193.753906 233.21875 L 193.753906 362.953125 C 193.753906 364.660156 192.371094 366.042969 190.664062 366.042969 " fill-opacity="1" fill-rule="nonzero"/></g><g clip-path="url(#clip-2)"><path fill="rgb(97.24884%, 75.289917%, 6.269836%)" d="M 317.46875 366.042969 C 315.757812 366.042969 314.375 364.660156 314.375 362.953125 L 314.375 236.304688 C 314.375 234.597656 315.757812 233.21875 317.46875 233.21875 C 319.179688 233.21875 320.5625 234.597656 320.5625 236.304688 L 320.5625 362.953125 C 320.5625 364.660156 319.179688 366.042969 317.46875 366.042969 " fill-opacity="1" fill-rule="nonzero"/></g><g clip-path="url(#clip-3)"><path fill="rgb(15.289307%, 24.708557%, 52.549744%)" d="M 227.777344 366.042969 L 209.21875 353.6875 L 165.1875 265.734375 C 159.953125 255.269531 149.242188 248.660156 137.527344 248.660156 L 39.113281 248.660156 L 39.113281 254.839844 C 39.113281 271.898438 52.960938 285.730469 70.042969 285.730469 L 138.085938 285.730469 L 172.105469 353.6875 L 172.105469 366.042969 L 227.777344 366.042969 " fill-opacity="1" fill-rule="nonzero"/></g><g clip-path="url(#clip-4)"><path fill="rgb(54.508972%, 59.609985%, 83.529663%)" d="M 187.570312 38.609375 L 138.085938 38.609375 L 138.085938 7.71875 L 187.570312 7.71875 L 187.570312 38.609375 " fill-opacity="1" fill-rule="nonzero"/></g><path fill="rgb(54.508972%, 59.609985%, 83.529663%)" d="M 261.796875 223.949219 L 175.199219 223.949219 L 199.941406 155.992188 L 286.539062 155.992188 L 261.796875 223.949219 " fill-opacity="1" fill-rule="nonzero"/><path fill="rgb(30.589294%, 38.038635%, 71.369934%)" d="M 255.613281 223.949219 L 181.382812 223.949219 L 203.035156 162.171875 L 277.261719 162.171875 L 255.613281 223.949219 " fill-opacity="1" fill-rule="nonzero"/><path fill="rgb(97.24884%, 61.569214%, 82.348633%)" d="M 93.359375 140.222656 L 84.554688 168.097656 L 66.859375 162.523438 L 78.6875 125.070312 L 93.359375 140.222656 " fill-opacity="1" fill-rule="nonzero"/><path fill="rgb(95.289612%, 59.21936%, 6.269836%)" d="M 82.414062 304.261719 L 39.113281 304.261719 L 39.113281 285.730469 L 82.414062 285.730469 L 82.414062 304.261719 " fill-opacity="1" fill-rule="nonzero"/><path fill="rgb(97.24884%, 75.289917%, 6.269836%)" d="M 82.414062 285.730469 L 150.457031 285.730469 L 150.457031 304.261719 L 82.414062 304.261719 L 82.414062 285.730469 " fill-opacity="1" fill-rule="nonzero"/><path fill="rgb(97.24884%, 75.289917%, 6.269836%)" d="M 94.785156 356.777344 C 93.074219 356.777344 91.691406 355.394531 91.691406 353.6875 L 91.691406 304.261719 C 91.691406 302.554688 93.074219 301.175781 94.785156 301.175781 C 96.496094 301.175781 97.878906 302.554688 97.878906 304.261719 L 97.878906 353.6875 C 97.878906 355.394531 96.496094 356.777344 94.785156 356.777344 " fill-opacity="1" fill-rule="nonzero"/><path fill="rgb(97.24884%, 75.289917%, 6.269836%)" d="M 39.117188 356.777344 C 38.867188 356.777344 38.617188 356.75 38.367188 356.6875 C 36.707031 356.273438 35.699219 354.59375 36.117188 352.9375 C 38.28125 344.285156 46.03125 338.242188 54.960938 338.242188 L 134.613281 338.242188 C 143.542969 338.242188 151.289062 344.285156 153.457031 352.9375 C 153.871094 354.59375 152.863281 356.269531 151.207031 356.683594 C 149.546875 357.097656 147.871094 356.089844 147.457031 354.4375 C 145.980469 348.539062 140.699219 344.421875 134.613281 344.421875 L 54.960938 344.421875 C 48.875 344.421875 43.589844 348.539062 42.113281 354.4375 C 41.761719 355.839844 40.5 356.777344 39.117188 356.777344 " fill-opacity="1" fill-rule="nonzero"/><g clip-path="url(#clip-5)"><path fill="rgb(95.289612%, 59.21936%, 6.269836%)" d="M 88.640625 359.15625 C 89.03125 355.765625 92.101562 353.335938 95.496094 353.726562 C 98.886719 354.117188 101.320312 357.183594 100.929688 360.570312 C 100.539062 363.960938 97.46875 366.394531 94.074219 366 C 90.683594 365.613281 88.25 362.546875 88.640625 359.15625 " fill-opacity="1" fill-rule="nonzero"/></g><g clip-path="url(#clip-6)"><path fill="rgb(95.289612%, 59.21936%, 6.269836%)" d="M 32.96875 359.15625 C 33.359375 355.765625 36.429688 353.335938 39.824219 353.726562 C 43.214844 354.117188 45.652344 357.183594 45.261719 360.570312 C 44.867188 363.960938 41.800781 366.394531 38.40625 366 C 35.011719 365.613281 32.578125 362.546875 32.96875 359.15625 " fill-opacity="1" fill-rule="nonzero"/></g><g clip-path="url(#clip-7)"><path fill="rgb(95.289612%, 59.21936%, 6.269836%)" d="M 144.269531 359.867188 C 144.269531 356.453125 147.039062 353.6875 150.457031 353.6875 C 153.871094 353.6875 156.640625 356.453125 156.640625 359.867188 C 156.640625 363.277344 153.871094 366.042969 150.457031 366.042969 C 147.039062 366.042969 144.269531 363.277344 144.269531 359.867188 " fill-opacity="1" fill-rule="nonzero"/></g><path fill="rgb(95.289612%, 59.21936%, 6.269836%)" d="M 85.507812 304.261719 L 104.0625 304.261719 L 104.0625 322.796875 L 85.507812 322.796875 L 85.507812 304.261719 " fill-opacity="1" fill-rule="nonzero"/><path fill="rgb(95.289612%, 59.21936%, 6.269836%)" d="M 60.765625 288.820312 C 40.296875 288.820312 23.648438 272.191406 23.648438 251.75 L 23.648438 223.949219 C 23.648438 222.242188 25.035156 220.859375 26.742188 220.859375 C 28.453125 220.859375 29.835938 222.242188 29.835938 223.949219 L 29.835938 251.75 C 29.835938 268.78125 43.710938 282.640625 60.765625 282.640625 C 62.472656 282.640625 63.855469 284.023438 63.855469 285.730469 C 63.855469 287.4375 62.472656 288.820312 60.765625 288.820312 " fill-opacity="1" fill-rule="nonzero"/><path fill="rgb(97.24884%, 75.289917%, 6.269836%)" d="M 329.839844 236.304688 L 70.042969 236.304688 L 70.042969 223.949219 L 329.839844 223.949219 L 329.839844 236.304688 " fill-opacity="1" fill-rule="nonzero"/><path fill="rgb(95.289612%, 59.21936%, 6.269836%)" d="M 181.382812 236.304688 L 51.484375 236.304688 L 51.484375 223.949219 L 181.382812 223.949219 L 181.382812 236.304688 " fill-opacity="1" fill-rule="nonzero"/><g clip-path="url(#clip-8)"><path fill="rgb(30.589294%, 38.038635%, 71.369934%)" d="M 199.941406 7.71875 L 366.953125 7.71875 L 366.953125 125.101562 L 199.941406 125.101562 L 199.941406 7.71875 " fill-opacity="1" fill-rule="nonzero"/></g><path fill="rgb(54.508972%, 59.609985%, 83.529663%)" d="M 138.085938 100.390625 L 286.539062 100.390625 L 286.539062 137.457031 L 138.085938 137.457031 L 138.085938 100.390625 " fill-opacity="1" fill-rule="nonzero"/><g clip-path="url(#clip-9)"><path fill="rgb(54.508972%, 59.609985%, 83.529663%)" d="M 14.371094 7.71875 L 119.527344 7.71875 L 119.527344 69.5 L 14.371094 69.5 L 14.371094 7.71875 " fill-opacity="1" fill-rule="nonzero"/></g><path fill="rgb(54.508972%, 59.609985%, 83.529663%)" d="M 298.910156 137.457031 L 366.953125 137.457031 L 366.953125 193.058594 L 298.910156 193.058594 L 298.910156 137.457031 " fill-opacity="1" fill-rule="nonzero"/><path fill="rgb(23.919678%, 73.728943%, 53.729248%)" d="M 88.601562 248.660156 L 39.113281 248.660156 L 48.296875 166.140625 C 49.871094 151.996094 64.816406 143.507812 77.789062 149.402344 C 101.230469 160.039062 112.3125 187.085938 103.070312 211.085938 L 88.601562 248.660156 " fill-opacity="1" fill-rule="nonzero"/><g clip-path="url(#clip-10)"><path fill="rgb(18.03894%, 30.979919%, 66.268921%)" d="M 266.390625 331.390625 L 188.46875 260.699219 C 179.929688 252.953125 168.808594 248.660156 157.273438 248.660156 L 39.113281 248.660156 L 39.113281 254.839844 C 39.113281 271.898438 52.960938 285.730469 70.042969 285.730469 L 162.828125 285.730469 L 250.042969 366.953125 L 288.261719 327.023438 L 266.390625 331.390625 " fill-opacity="1" fill-rule="nonzero"/></g><path fill="rgb(23.919678%, 73.728943%, 53.729248%)" d="M 98.554688 172.898438 L 78.367188 194.605469 L 56.613281 175.601562 C 50.066406 169.867188 49.738281 159.800781 55.910156 153.660156 C 58.835938 150.753906 62.671875 149.289062 66.511719 149.289062 C 70.109375 149.289062 73.703125 150.570312 76.574219 153.140625 L 98.554688 172.898438 " fill-opacity="1" fill-rule="nonzero"/><path fill="rgb(18.03894%, 58.039856%, 43.919373%)" d="M 75.988281 195.613281 C 75.261719 195.613281 74.535156 195.363281 73.949219 194.851562 L 54.578125 177.921875 C 50.992188 174.789062 48.816406 170.449219 48.449219 165.707031 C 48.3125 164.007812 49.589844 162.519531 51.292969 162.386719 C 52.988281 162.25 54.480469 163.527344 54.613281 165.230469 C 54.855469 168.351562 56.292969 171.210938 58.652344 173.277344 L 78.023438 190.199219 C 79.308594 191.324219 79.4375 193.277344 78.3125 194.558594 C 77.703125 195.257812 76.847656 195.613281 75.988281 195.613281 " fill-opacity="1" fill-rule="nonzero"/><path fill="rgb(18.03894%, 58.039856%, 43.919373%)" d="M 96.316406 173.972656 C 95.578125 173.972656 94.839844 173.714844 94.246094 173.183594 L 74.503906 155.441406 C 73.230469 154.296875 73.128906 152.34375 74.269531 151.078125 C 75.414062 149.808594 77.371094 149.707031 78.636719 150.84375 L 98.386719 168.589844 C 99.652344 169.730469 99.757812 171.683594 98.613281 172.953125 C 98.003906 173.628906 97.164062 173.972656 96.316406 173.972656 " fill-opacity="1" fill-rule="nonzero"/><path fill="rgb(93.728638%, 17.649841%, 28.62854%)" d="M 323.652344 149.8125 L 348.398438 165.257812 L 323.652344 180.703125 Z M 323.652344 149.8125 " fill-opacity="1" fill-rule="nonzero"/><path fill="rgb(26.269531%, 33.729553%, 68.629456%)" d="M 354.582031 88.035156 L 255.613281 88.035156 L 255.613281 38.609375 L 354.582031 38.609375 L 354.582031 88.035156 " fill-opacity="1" fill-rule="nonzero"/><path fill="rgb(93.728638%, 17.649841%, 28.62854%)" d="M 63.855469 38.609375 C 63.855469 48.84375 55.546875 57.144531 45.300781 57.144531 C 35.050781 57.144531 26.742188 48.84375 26.742188 38.609375 C 26.742188 28.375 35.050781 20.078125 45.300781 20.078125 L 45.300781 38.609375 L 63.855469 38.609375 " fill-opacity="1" fill-rule="nonzero"/><path fill="rgb(30.589294%, 38.038635%, 71.369934%)" d="M 286.539062 78.765625 C 285.75 78.765625 284.957031 78.464844 284.355469 77.863281 C 283.144531 76.65625 283.144531 74.699219 284.355469 73.492188 L 302.910156 54.960938 C 304.117188 53.753906 306.074219 53.753906 307.285156 54.960938 L 316.988281 64.652344 L 327.265625 49.253906 C 328.128906 47.957031 329.828125 47.507812 331.222656 48.203125 L 343.59375 54.382812 C 345.121094 55.144531 345.742188 57 344.976562 58.527344 C 344.214844 60.050781 342.355469 60.671875 340.828125 59.90625 L 330.898438 54.949219 L 320.042969 71.214844 C 319.527344 71.984375 318.695312 72.484375 317.773438 72.574219 C 316.851562 72.667969 315.9375 72.339844 315.28125 71.683594 L 305.097656 61.511719 L 288.726562 77.863281 C 288.121094 78.464844 287.332031 78.765625 286.539062 78.765625 " fill-opacity="1" fill-rule="nonzero"/><path fill="rgb(54.508972%, 59.609985%, 83.529663%)" d="M 138.085938 50.964844 L 286.539062 50.964844 L 286.539062 88.035156 L 138.085938 88.035156 L 138.085938 50.964844 " fill-opacity="1" fill-rule="nonzero"/><path fill="rgb(30.589294%, 38.038635%, 71.369934%)" d="M 166.695312 78.765625 L 147.363281 78.765625 L 147.363281 60.234375 L 166.695312 60.234375 L 166.695312 78.765625 " fill-opacity="1" fill-rule="nonzero"/><path fill="rgb(30.589294%, 38.038635%, 71.369934%)" d="M 165.921875 128.191406 L 147.363281 128.191406 L 147.363281 109.65625 L 165.921875 109.65625 L 165.921875 128.191406 " fill-opacity="1" fill-rule="nonzero"/><path fill="rgb(40.388489%, 47.059631%, 76.858521%)" d="M 94.785156 23.164062 L 76.226562 23.164062 C 74.519531 23.164062 73.136719 21.785156 73.136719 20.078125 C 73.136719 18.367188 74.519531 16.988281 76.226562 16.988281 L 94.785156 16.988281 C 96.496094 16.988281 97.878906 18.367188 97.878906 20.078125 C 97.878906 21.785156 96.496094 23.164062 94.785156 23.164062 " fill-opacity="1" fill-rule="nonzero"/><path fill="rgb(40.388489%, 47.059631%, 76.858521%)" d="M 107.15625 35.519531 L 76.226562 35.519531 C 74.519531 35.519531 73.136719 34.140625 73.136719 32.433594 C 73.136719 30.726562 74.519531 29.34375 76.226562 29.34375 L 107.15625 29.34375 C 108.867188 29.34375 110.25 30.726562 110.25 32.433594 C 110.25 34.140625 108.867188 35.519531 107.15625 35.519531 " fill-opacity="1" fill-rule="nonzero"/><path fill="rgb(40.388489%, 47.059631%, 76.858521%)" d="M 94.785156 47.878906 L 76.226562 47.878906 C 74.519531 47.878906 73.136719 46.496094 73.136719 44.789062 C 73.136719 43.082031 74.519531 41.699219 76.226562 41.699219 L 94.785156 41.699219 C 96.496094 41.699219 97.878906 43.082031 97.878906 44.789062 C 97.878906 46.496094 96.496094 47.878906 94.785156 47.878906 " fill-opacity="1" fill-rule="nonzero"/><path fill="rgb(40.388489%, 47.059631%, 76.858521%)" d="M 107.15625 60.234375 L 76.226562 60.234375 C 74.519531 60.234375 73.136719 58.851562 73.136719 57.144531 C 73.136719 55.4375 74.519531 54.054688 76.226562 54.054688 L 107.15625 54.054688 C 108.867188 54.054688 110.25 55.4375 110.25 57.144531 C 110.25 58.851562 108.867188 60.234375 107.15625 60.234375 " fill-opacity="1" fill-rule="nonzero"/><path fill="rgb(30.589294%, 38.038635%, 71.369934%)" d="M 342.210938 78.765625 L 336.027344 78.765625 C 334.316406 78.765625 332.933594 77.386719 332.933594 75.679688 C 332.933594 73.972656 334.316406 72.589844 336.027344 72.589844 L 342.210938 72.589844 C 343.921875 72.589844 345.304688 73.972656 345.304688 75.679688 C 345.304688 77.386719 343.921875 78.765625 342.210938 78.765625 " fill-opacity="1" fill-rule="nonzero"/><path fill="rgb(40.388489%, 47.059631%, 76.858521%)" d="M 152.003906 26.253906 L 148.910156 26.253906 C 147.199219 26.253906 145.816406 24.871094 145.816406 23.164062 C 145.816406 21.457031 147.199219 20.078125 148.910156 20.078125 L 152.003906 20.078125 C 153.710938 20.078125 155.09375 21.457031 155.09375 23.164062 C 155.09375 24.871094 153.710938 26.253906 152.003906 26.253906 " fill-opacity="1" fill-rule="nonzero"/><path fill="rgb(40.388489%, 47.059631%, 76.858521%)" d="M 164.375 26.253906 L 161.28125 26.253906 C 159.570312 26.253906 158.1875 24.871094 158.1875 23.164062 C 158.1875 21.457031 159.570312 20.078125 161.28125 20.078125 L 164.375 20.078125 C 166.082031 20.078125 167.464844 21.457031 167.464844 23.164062 C 167.464844 24.871094 166.082031 26.253906 164.375 26.253906 " fill-opacity="1" fill-rule="nonzero"/><path fill="rgb(40.388489%, 47.059631%, 76.858521%)" d="M 176.746094 26.253906 L 173.652344 26.253906 C 171.941406 26.253906 170.558594 24.871094 170.558594 23.164062 C 170.558594 21.457031 171.941406 20.078125 173.652344 20.078125 L 176.746094 20.078125 C 178.453125 20.078125 179.839844 21.457031 179.839844 23.164062 C 179.839844 24.871094 178.453125 26.253906 176.746094 26.253906 " fill-opacity="1" fill-rule="nonzero"/><path fill="rgb(26.269531%, 33.729553%, 68.629456%)" d="M 138.085938 211.59375 L 266.4375 211.59375 L 266.4375 223.949219 L 138.085938 223.949219 L 138.085938 211.59375 " fill-opacity="1" fill-rule="nonzero"/><path fill="rgb(95.289612%, 59.21936%, 6.269836%)" d="M 39.113281 223.949219 L 8.1875 223.949219 L 8.1875 174.527344 L 39.113281 174.527344 L 39.113281 223.949219 " fill-opacity="1" fill-rule="nonzero"/><path fill="rgb(97.24884%, 75.289917%, 6.269836%)" d="M 39.113281 174.527344 L 51.484375 174.527344 L 51.484375 223.949219 L 39.113281 223.949219 L 39.113281 174.527344 " fill-opacity="1" fill-rule="nonzero"/><path fill="rgb(97.24884%, 61.569214%, 82.348633%)" d="M 220.636719 211.59375 L 195.894531 211.59375 L 134.300781 223.425781 C 122.421875 225.703125 110.160156 222.390625 101.058594 214.433594 L 78.367188 194.605469 L 98.554688 172.898438 L 127.851562 199.238281 L 189.585938 193.628906 C 193.757812 193.253906 197.972656 193.578125 202.039062 194.59375 L 208.632812 196.242188 C 215.6875 198 220.636719 204.335938 220.636719 211.59375 " fill-opacity="1" fill-rule="nonzero"/><g clip-path="url(#clip-11)"><path fill="rgb(40.388489%, 47.059631%, 76.858521%)" d="M 366.953125 26.253906 L 199.941406 26.253906 L 199.941406 7.71875 L 366.953125 7.71875 L 366.953125 26.253906 " fill-opacity="1" fill-rule="nonzero"/></g><path fill="rgb(40.388489%, 47.059631%, 76.858521%)" d="M 255.613281 66.410156 L 175.199219 66.410156 C 173.488281 66.410156 172.105469 65.03125 172.105469 63.320312 C 172.105469 61.613281 173.488281 60.234375 175.199219 60.234375 L 255.613281 60.234375 C 257.320312 60.234375 258.703125 61.613281 258.703125 63.320312 C 258.703125 65.03125 257.320312 66.410156 255.613281 66.410156 " fill-opacity="1" fill-rule="nonzero"/><path fill="rgb(40.388489%, 47.059631%, 76.858521%)" d="M 274.167969 78.765625 L 175.199219 78.765625 C 173.488281 78.765625 172.105469 77.386719 172.105469 75.679688 C 172.105469 73.972656 173.488281 72.589844 175.199219 72.589844 L 274.167969 72.589844 C 275.878906 72.589844 277.261719 73.972656 277.261719 75.679688 C 277.261719 77.386719 275.878906 78.765625 274.167969 78.765625 " fill-opacity="1" fill-rule="nonzero"/><path fill="rgb(40.388489%, 47.059631%, 76.858521%)" d="M 218.5 115.835938 L 175.199219 115.835938 C 173.488281 115.835938 172.105469 114.453125 172.105469 112.746094 C 172.105469 111.039062 173.488281 109.65625 175.199219 109.65625 L 218.5 109.65625 C 220.207031 109.65625 221.589844 111.039062 221.589844 112.746094 C 221.589844 114.453125 220.207031 115.835938 218.5 115.835938 " fill-opacity="1" fill-rule="nonzero"/><path fill="rgb(40.388489%, 47.059631%, 76.858521%)" d="M 261.796875 115.835938 L 230.871094 115.835938 C 229.160156 115.835938 227.777344 114.453125 227.777344 112.746094 C 227.777344 111.039062 229.160156 109.65625 230.871094 109.65625 L 261.796875 109.65625 C 263.507812 109.65625 264.890625 111.039062 264.890625 112.746094 C 264.890625 114.453125 263.507812 115.835938 261.796875 115.835938 " fill-opacity="1" fill-rule="nonzero"/><path fill="rgb(40.388489%, 47.059631%, 76.858521%)" d="M 274.167969 128.191406 L 175.199219 128.191406 C 173.488281 128.191406 172.105469 126.808594 172.105469 125.101562 C 172.105469 123.394531 173.488281 122.011719 175.199219 122.011719 L 274.167969 122.011719 C 275.878906 122.011719 277.261719 123.394531 277.261719 125.101562 C 277.261719 126.808594 275.878906 128.191406 274.167969 128.191406 " fill-opacity="1" fill-rule="nonzero"/><path fill="rgb(40.388489%, 47.059631%, 76.858521%)" d="M 243.242188 41.699219 L 212.3125 41.699219 C 210.601562 41.699219 209.21875 40.316406 209.21875 38.609375 C 209.21875 36.902344 210.601562 35.519531 212.3125 35.519531 L 243.242188 35.519531 C 244.949219 35.519531 246.332031 36.902344 246.332031 38.609375 C 246.332031 40.316406 244.949219 41.699219 243.242188 41.699219 " fill-opacity="1" fill-rule="nonzero"/><path fill="rgb(26.269531%, 33.729553%, 68.629456%)" d="M 323.652344 103.480469 L 298.910156 103.480469 C 297.203125 103.480469 295.820312 102.097656 295.820312 100.390625 C 295.820312 98.683594 297.203125 97.300781 298.910156 97.300781 L 323.652344 97.300781 C 325.363281 97.300781 326.746094 98.683594 326.746094 100.390625 C 326.746094 102.097656 325.363281 103.480469 323.652344 103.480469 " fill-opacity="1" fill-rule="nonzero"/><path fill="rgb(26.269531%, 33.729553%, 68.629456%)" d="M 354.582031 103.480469 L 336.027344 103.480469 C 334.316406 103.480469 332.933594 102.097656 332.933594 100.390625 C 332.933594 98.683594 334.316406 97.300781 336.027344 97.300781 L 354.582031 97.300781 C 356.292969 97.300781 357.675781 98.683594 357.675781 100.390625 C 357.675781 102.097656 356.292969 103.480469 354.582031 103.480469 " fill-opacity="1" fill-rule="nonzero"/><path fill="rgb(26.269531%, 33.729553%, 68.629456%)" d="M 354.582031 115.835938 L 298.910156 115.835938 C 297.203125 115.835938 295.820312 114.453125 295.820312 112.746094 C 295.820312 111.039062 297.203125 109.65625 298.910156 109.65625 L 354.582031 109.65625 C 356.292969 109.65625 357.675781 111.039062 357.675781 112.746094 C 357.675781 114.453125 356.292969 115.835938 354.582031 115.835938 " fill-opacity="1" fill-rule="nonzero"/><path fill="rgb(90.979004%, 31.369019%, 60.389709%)" d="M 89.644531 151.984375 C 83.980469 148.476562 81.421875 141.582031 83.414062 135.230469 L 85.824219 127.546875 L 93.359375 140.222656 L 89.644531 151.984375 " fill-opacity="1" fill-rule="nonzero"/><path fill="rgb(97.24884%, 61.569214%, 82.348633%)" d="M 89.542969 147.023438 L 88.109375 146.570312 C 79.96875 144.003906 75.445312 135.332031 78.015625 127.195312 L 84.570312 106.4375 L 108.167969 113.875 L 99.300781 141.949219 C 98.007812 146.042969 93.640625 148.3125 89.542969 147.023438 " fill-opacity="1" fill-rule="nonzero"/><path fill="rgb(15.289307%, 24.708557%, 52.549744%)" d="M 73.054688 122.367188 L 77.265625 109.03125 C 78.679688 104.566406 82.488281 101.28125 87.121094 100.542969 C 90.964844 99.929688 94.871094 101.164062 97.667969 103.867188 L 99.535156 105.671875 C 101.917969 107.976562 104.828125 109.667969 108.011719 110.59375 L 116.433594 113.054688 L 114.449219 119.351562 C 112.964844 124.046875 108.007812 126.707031 103.269531 125.355469 C 102.078125 125.015625 100.964844 124.433594 100.003906 123.648438 L 88.574219 114.300781 C 86.933594 119.496094 81.964844 122.90625 76.519531 122.578125 L 73.054688 122.367188 " fill-opacity="1" fill-rule="nonzero"/><path fill="rgb(97.24884%, 61.569214%, 82.348633%)" d="M 73.054688 122.367188 C 74.082031 119.113281 77.558594 117.308594 80.8125 118.332031 C 84.070312 119.363281 85.882812 122.832031 84.851562 126.085938 C 83.824219 129.335938 80.351562 131.144531 77.09375 130.117188 C 73.832031 129.089844 72.027344 125.621094 73.054688 122.367188 " fill-opacity="1" fill-rule="nonzero"/><g clip-path="url(#clip-12)"><path fill="rgb(95.289612%, 59.21936%, 6.269836%)" d="M 172.105469 366.042969 C 170.394531 366.042969 169.011719 364.660156 169.011719 362.953125 L 169.011719 236.304688 C 169.011719 234.597656 170.394531 233.21875 172.105469 233.21875 C 173.816406 233.21875 175.199219 234.597656 175.199219 236.304688 L 175.199219 362.953125 C 175.199219 364.660156 173.816406 366.042969 172.105469 366.042969 " fill-opacity="1" fill-rule="nonzero"/></g></svg>