<?xml version="1.0" encoding="UTF-8"?><svg xmlns="http://www.w3.org/2000/svg" xmlns:xlink="http://www.w3.org/1999/xlink" contentScriptType="text/ecmascript" width="187.5" zoomAndPan="magnify" contentStyleType="text/css" viewBox="0 0 187.5 187.499995" height="187.499995" preserveAspectRatio="xMidYMid meet" version="1.0"><defs><clipPath id="clip-0"><path d="M 18.75 18.75 L 168.75 18.75 L 168.75 162.75 L 18.75 162.75 Z M 18.75 18.75 " clip-rule="nonzero"/></clipPath></defs><g clip-path="url(#clip-0)"><path fill="rgb(0%, 0%, 0%)" d="M 167.1875 18.75 L 20.3125 18.75 C 19.46875 18.75 18.785156 19.4375 18.785156 20.28125 L 18.785156 124.453125 C 18.785156 125.296875 19.46875 125.984375 20.3125 125.984375 L 92.21875 125.984375 L 92.21875 159.6875 L 63.152344 159.6875 C 62.308594 159.6875 61.621094 160.371094 61.621094 161.21875 C 61.621094 162.0625 62.308594 162.75 63.152344 162.75 L 124.347656 162.75 C 125.191406 162.75 125.878906 162.0625 125.878906 161.21875 C 125.878906 160.371094 125.191406 159.6875 124.347656 159.6875 L 95.28125 159.6875 L 95.28125 125.984375 L 167.1875 125.984375 C 168.03125 125.984375 168.714844 125.296875 168.714844 124.453125 L 168.714844 20.28125 C 168.714844 19.4375 168.03125 18.75 167.1875 18.75 Z M 165.65625 122.921875 L 21.84375 122.921875 L 21.84375 21.8125 L 165.65625 21.8125 Z M 165.65625 122.921875 " fill-opacity="1" fill-rule="nonzero"/></g><path fill="rgb(0%, 0%, 0%)" d="M 38.671875 46.324219 L 93.75 46.324219 C 94.59375 46.324219 95.28125 45.636719 95.28125 44.792969 C 95.28125 43.945312 94.59375 43.261719 93.75 43.261719 L 38.671875 43.261719 C 37.828125 43.261719 37.144531 43.945312 37.144531 44.792969 C 37.144531 45.636719 37.828125 46.324219 38.671875 46.324219 Z M 38.671875 46.324219 " fill-opacity="1" fill-rule="nonzero"/><path fill="rgb(0%, 0%, 0%)" d="M 38.671875 58.578125 L 93.75 58.578125 C 94.59375 58.578125 95.28125 57.894531 95.28125 57.046875 C 95.28125 56.203125 94.59375 55.515625 93.75 55.515625 L 38.671875 55.515625 C 37.828125 55.515625 37.144531 56.203125 37.144531 57.046875 C 37.144531 57.894531 37.828125 58.578125 38.671875 58.578125 Z M 38.671875 58.578125 " fill-opacity="1" fill-rule="nonzero"/><path fill="rgb(0%, 0%, 0%)" d="M 38.671875 101.472656 L 69.269531 101.472656 C 70.117188 101.472656 70.800781 100.785156 70.800781 99.941406 L 70.800781 87.6875 C 70.800781 86.839844 70.117188 86.152344 69.269531 86.152344 L 38.671875 86.152344 C 37.828125 86.152344 37.144531 86.839844 37.144531 87.6875 L 37.144531 99.941406 C 37.144531 100.785156 37.828125 101.472656 38.671875 101.472656 Z M 40.203125 89.21875 L 67.742188 89.21875 L 67.742188 98.410156 L 40.203125 98.410156 Z M 40.203125 89.21875 " fill-opacity="1" fill-rule="nonzero"/><path fill="rgb(0%, 0%, 0%)" d="M 38.671875 70.835938 L 69.269531 70.835938 C 70.117188 70.835938 70.800781 70.148438 70.800781 69.304688 C 70.800781 68.457031 70.117188 67.769531 69.269531 67.769531 L 38.671875 67.769531 C 37.828125 67.769531 37.144531 68.457031 37.144531 69.304688 C 37.144531 70.148438 37.828125 70.835938 38.671875 70.835938 Z M 38.671875 70.835938 " fill-opacity="1" fill-rule="nonzero"/><path fill="rgb(0%, 0%, 0%)" d="M 111.523438 96.507812 C 112.09375 96.738281 112.75 96.609375 113.191406 96.175781 L 123.824219 85.539062 L 131.660156 100.648438 C 131.929688 101.171875 132.464844 101.476562 133.015625 101.476562 C 133.253906 101.476562 133.492188 101.421875 133.714844 101.304688 L 140.101562 97.996094 C 140.460938 97.804688 140.734375 97.484375 140.855469 97.097656 C 140.980469 96.710938 140.941406 96.289062 140.757812 95.929688 L 133.453125 81.824219 L 147.285156 81.824219 C 147.914062 81.824219 148.484375 81.4375 148.710938 80.847656 C 148.941406 80.257812 148.785156 79.589844 148.320312 79.164062 L 113.144531 46.84375 C 112.695312 46.433594 112.046875 46.328125 111.492188 46.574219 C 110.9375 46.816406 110.578125 47.367188 110.578125 47.976562 L 110.578125 95.089844 C 110.578125 95.710938 110.953125 96.269531 111.523438 96.507812 Z M 113.640625 51.460938 L 143.351562 78.757812 L 130.933594 78.757812 C 130.398438 78.757812 129.902344 79.035156 129.625 79.492188 C 129.347656 79.949219 129.328125 80.519531 129.570312 80.996094 L 137.332031 95.976562 L 133.664062 97.875 L 125.574219 82.269531 C 125.347656 81.835938 124.933594 81.535156 124.449219 81.460938 C 124.371094 81.449219 124.292969 81.441406 124.21875 81.441406 C 123.8125 81.441406 123.425781 81.601562 123.132812 81.890625 L 113.640625 91.394531 Z M 113.640625 51.460938 " fill-opacity="1" fill-rule="nonzero"/></svg>