<?xml version="1.0" encoding="UTF-8"?><svg xmlns="http://www.w3.org/2000/svg" xmlns:xlink="http://www.w3.org/1999/xlink" contentScriptType="text/ecmascript" width="187.5" zoomAndPan="magnify" contentStyleType="text/css" viewBox="0 0 187.5 187.499995" height="187.499995" preserveAspectRatio="xMidYMid meet" version="1.0"><defs><clipPath id="clip-0"><path d="M 19 31.875 L 139 31.875 L 139 146 L 19 146 Z M 19 31.875 " clip-rule="nonzero"/></clipPath></defs><g clip-path="url(#clip-0)"><path fill="rgb(0%, 0%, 0%)" d="M 138.179688 41.417969 L 133.246094 41.417969 L 133.246094 39.003906 C 133.246094 37.613281 132.113281 36.484375 130.726562 36.484375 L 27.152344 36.484375 C 25.738281 36.484375 24.632812 37.613281 24.632812 39.003906 L 24.632812 100.660156 L 83.875 100.660156 L 83.875 105.597656 L 24.632812 105.597656 L 24.632812 117.890625 C 24.632812 119.277344 25.765625 120.410156 27.152344 120.410156 L 83.875 120.410156 L 83.875 125.347656 L 72.972656 125.347656 L 69.273438 140.15625 L 83.875 140.15625 L 83.875 145.09375 L 56.722656 145.09375 C 55.335938 145.09375 54.253906 143.988281 54.253906 142.625 C 54.253906 141.3125 55.359375 140.15625 56.75 140.15625 L 63.152344 140.15625 C 63.71875 140.15625 64.230469 139.71875 64.359375 139.203125 L 67.832031 125.347656 L 27.152344 125.347656 C 23.039062 125.347656 19.699219 122.003906 19.699219 117.964844 L 19.699219 38.925781 C 19.699219 34.835938 22.988281 31.546875 27.152344 31.546875 L 130.726562 31.546875 C 134.839844 31.546875 138.179688 34.886719 138.179688 38.925781 Z M 78.941406 117.941406 C 76.214844 117.941406 74.003906 115.730469 74.003906 113.003906 C 74.003906 110.277344 76.214844 108.066406 78.941406 108.066406 C 81.664062 108.066406 83.875 110.277344 83.875 113.003906 C 83.875 115.730469 81.664062 117.941406 78.941406 117.941406 Z M 78.941406 117.941406 " fill-opacity="1" fill-rule="evenodd"/></g><path fill="rgb(0%, 0%, 0%)" d="M 157.929688 66.105469 L 152.992188 66.105469 L 152.992188 61.167969 L 93.75 61.167969 L 93.75 125.347656 L 113.496094 125.347656 L 113.496094 130.28125 L 93.75 130.28125 L 93.75 142.648438 C 93.75 143.988281 94.855469 145.09375 96.21875 145.09375 L 113.496094 145.09375 L 113.496094 150.03125 L 96.242188 150.03125 C 92.128906 150.03125 88.8125 146.738281 88.8125 142.597656 L 88.8125 53.789062 C 88.8125 49.671875 92.105469 46.355469 96.242188 46.355469 L 150.496094 46.355469 C 154.613281 46.355469 157.929688 49.648438 157.929688 53.789062 Z M 93.75 53.734375 L 93.75 56.230469 L 152.992188 56.230469 L 152.992188 53.734375 C 152.992188 52.398438 151.886719 51.292969 150.523438 51.292969 L 96.21875 51.292969 C 94.828125 51.292969 93.75 52.398438 93.75 53.734375 Z M 93.75 53.734375 " fill-opacity="1" fill-rule="evenodd"/><path fill="rgb(0%, 0%, 0%)" d="M 125.863281 71.039062 L 160.371094 71.039062 C 164.484375 71.039062 167.800781 74.332031 167.800781 78.472656 L 167.800781 147.535156 C 167.800781 151.648438 164.511719 154.964844 160.371094 154.964844 L 125.863281 154.964844 C 121.75 154.964844 118.433594 151.675781 118.433594 147.535156 L 118.433594 78.472656 C 118.433594 74.359375 121.726562 71.039062 125.863281 71.039062 Z M 123.371094 130.28125 L 162.867188 130.28125 L 162.867188 85.851562 L 123.371094 85.851562 Z M 123.371094 78.421875 L 123.371094 80.914062 L 162.867188 80.914062 L 162.867188 78.421875 C 162.867188 77.082031 161.761719 75.976562 160.398438 75.976562 L 125.839844 75.976562 C 124.449219 75.976562 123.371094 77.082031 123.371094 78.421875 Z M 123.371094 147.585938 C 123.371094 148.925781 124.476562 150.03125 125.839844 150.03125 L 160.398438 150.03125 C 161.785156 150.03125 162.867188 148.925781 162.867188 147.585938 L 162.867188 135.21875 L 123.371094 135.21875 Z M 123.371094 147.585938 " fill-opacity="1" fill-rule="evenodd"/><path fill="rgb(0%, 0%, 0%)" d="M 148.054688 142.625 C 148.054688 145.351562 145.84375 147.5625 143.117188 147.5625 C 140.394531 147.5625 138.179688 145.351562 138.179688 142.625 C 138.179688 139.898438 140.394531 137.6875 143.117188 137.6875 C 145.84375 137.6875 148.054688 139.898438 148.054688 142.625 Z M 148.054688 142.625 " fill-opacity="1" fill-rule="evenodd"/></svg>