<?xml version="1.0" encoding="UTF-8"?><svg xmlns="http://www.w3.org/2000/svg" xmlns:xlink="http://www.w3.org/1999/xlink" contentScriptType="text/ecmascript" width="187.5" zoomAndPan="magnify" contentStyleType="text/css" viewBox="0 0 187.5 187.499995" height="187.499995" preserveAspectRatio="xMidYMid meet" version="1.0"><defs><clipPath id="clip-0"><path d="M 18.75 27.65625 L 168.75 27.65625 L 168.75 159.65625 L 18.75 159.65625 Z M 18.75 27.65625 " clip-rule="nonzero"/></clipPath></defs><path fill="rgb(0%, 0%, 0%)" d="M 139.105469 99.84375 C 139.105469 87.289062 134.007812 75.917969 125.765625 67.6875 L 93.566406 99.84375 Z M 135.886719 96.738281 L 101.074219 96.738281 L 125.6875 72.160156 C 131.679688 79.070312 135.226562 87.621094 135.886719 96.738281 Z M 135.886719 96.738281 " fill-opacity="1" fill-rule="nonzero"/><g clip-path="url(#clip-0)"><path fill="rgb(0%, 0%, 0%)" d="M 162.027344 31.683594 L 76.621094 31.683594 L 71.871094 27.65625 L 26.121094 27.65625 C 22.078125 27.65625 18.792969 30.9375 18.792969 34.972656 L 18.792969 152.339844 C 18.792969 156.375 22.078125 159.65625 26.121094 159.65625 L 161.378906 159.65625 C 165.421875 159.65625 168.707031 156.375 168.707031 152.339844 L 168.707031 38.355469 C 168.707031 34.679688 165.710938 31.683594 162.027344 31.683594 Z M 165.597656 45.199219 L 165.597656 152.339844 C 165.597656 154.660156 163.707031 156.550781 161.378906 156.550781 L 26.121094 156.550781 C 23.792969 156.550781 21.902344 154.660156 21.902344 152.339844 L 21.902344 34.972656 C 21.902344 32.652344 23.792969 30.761719 26.121094 30.761719 L 70.726562 30.761719 L 71.816406 31.683594 L 75.476562 34.789062 L 82.785156 40.988281 L 161.378906 40.988281 C 163.707031 40.988281 165.597656 42.878906 165.597656 45.199219 Z M 165.597656 39.222656 C 164.402344 38.378906 162.949219 37.882812 161.378906 37.882812 L 83.929688 37.882812 L 80.28125 34.789062 L 162.027344 34.789062 C 163.996094 34.789062 165.597656 36.390625 165.597656 38.355469 Z M 165.597656 39.222656 " fill-opacity="1" fill-rule="nonzero"/></g><path fill="rgb(0%, 0%, 0%)" d="M 74.984375 147.105469 L 76.429688 147.671875 C 81.886719 149.804688 87.652344 150.882812 93.566406 150.882812 C 119.535156 150.882812 140.660156 129.785156 140.660156 103.855469 L 140.660156 102.300781 L 92.503906 102.300781 Z M 137.523438 105.40625 C 136.703125 128.910156 117.296875 147.777344 93.566406 147.777344 C 88.566406 147.777344 83.683594 146.953125 79.019531 145.320312 L 94.628906 105.40625 Z M 137.523438 105.40625 " fill-opacity="1" fill-rule="nonzero"/><path fill="rgb(0%, 0%, 0%)" d="M 123.804688 65.523438 L 122.703125 64.425781 C 118.0625 59.789062 112.621094 56.234375 106.539062 53.863281 C 101.558594 51.917969 96.324219 50.851562 90.957031 50.679688 L 90.957031 50.652344 L 87.847656 50.652344 L 87.847656 50.679688 C 62.597656 51.503906 42.308594 72.269531 42.308594 97.679688 C 42.308594 110.242188 47.207031 122.050781 56.101562 130.933594 C 60.746094 135.574219 66.183594 139.125 72.269531 141.5 L 73.71875 142.0625 L 90.734375 98.550781 Z M 90.957031 53.785156 C 93.292969 53.863281 95.601562 54.128906 97.871094 54.570312 L 90.957031 61.476562 Z M 90.957031 65.867188 L 101.421875 55.417969 C 102.765625 55.800781 104.097656 56.246094 105.40625 56.757812 C 105.757812 56.894531 106.105469 57.035156 106.449219 57.179688 L 90.957031 72.652344 Z M 90.957031 77.046875 L 109.453125 58.574219 C 110.875 59.300781 112.253906 60.105469 113.585938 60.980469 L 90.957031 83.570312 Z M 90.957031 87.964844 L 116.152344 62.808594 C 117.269531 63.664062 118.347656 64.574219 119.386719 65.542969 L 90.957031 93.933594 Z M 87.847656 97.390625 L 71.960938 138.015625 C 66.859375 135.820312 62.269531 132.703125 58.300781 128.738281 C 49.992188 120.441406 45.417969 109.414062 45.417969 97.679688 C 45.417969 73.984375 64.3125 54.605469 87.847656 53.785156 Z M 87.847656 97.390625 " fill-opacity="1" fill-rule="nonzero"/><path fill="rgb(0%, 0%, 0%)" d="M 49.4375 105.40625 L 59.125 105.40625 L 59.125 84.714844 L 49.4375 84.714844 Z M 52.546875 87.820312 L 56.015625 87.820312 L 56.015625 102.300781 L 52.546875 102.300781 Z M 52.546875 87.820312 " fill-opacity="1" fill-rule="nonzero"/><path fill="rgb(0%, 0%, 0%)" d="M 71.308594 78.492188 L 61.621094 78.492188 L 61.621094 105.40625 L 71.308594 105.40625 Z M 68.199219 102.300781 L 64.730469 102.300781 L 64.730469 81.597656 L 68.199219 81.597656 Z M 68.199219 102.300781 " fill-opacity="1" fill-rule="nonzero"/><path fill="rgb(0%, 0%, 0%)" d="M 83.492188 71.667969 L 73.800781 71.667969 L 73.800781 105.40625 L 83.492188 105.40625 Z M 80.378906 102.300781 L 76.914062 102.300781 L 76.914062 74.773438 L 80.378906 74.773438 Z M 80.378906 102.300781 " fill-opacity="1" fill-rule="nonzero"/><path fill="rgb(0%, 0%, 0%)" d="M 54.660156 43.144531 L 58.960938 43.144531 L 58.960938 46.253906 L 54.660156 46.253906 Z M 54.660156 43.144531 " fill-opacity="1" fill-rule="nonzero"/><path fill="rgb(0%, 0%, 0%)" d="M 31.976562 43.144531 L 50.992188 43.144531 L 50.992188 46.253906 L 31.976562 46.253906 Z M 31.976562 43.144531 " fill-opacity="1" fill-rule="nonzero"/><path fill="rgb(0%, 0%, 0%)" d="M 107.609375 126.429688 C 110.464844 127.265625 110.726562 128.167969 110.75 129.09375 C 110.785156 130.355469 110.046875 131.425781 108.90625 131.765625 C 108.742188 131.8125 108.578125 131.847656 108.414062 131.871094 C 107.738281 131.957031 107.078125 131.75 106.554688 131.285156 C 105.996094 130.796875 105.675781 130.09375 105.675781 129.351562 L 102.566406 129.351562 C 102.566406 130.984375 103.269531 132.539062 104.5 133.617188 C 105.085938 134.132812 105.765625 134.507812 106.492188 134.738281 L 106.492188 138.300781 L 109.601562 138.300781 L 109.601562 134.789062 C 109.667969 134.773438 109.730469 134.761719 109.792969 134.742188 C 112.261719 134.007812 113.933594 131.652344 113.859375 129.007812 C 113.75 124.992188 109.925781 123.871094 108.484375 123.449219 C 105.699219 122.632812 105.441406 121.980469 105.359375 121.074219 C 105.226562 119.605469 106.144531 118.300781 107.488281 118.039062 C 107.558594 118.023438 107.625 118.015625 107.695312 118.003906 C 108.367188 117.921875 109.023438 118.132812 109.546875 118.59375 C 110.097656 119.085938 110.414062 119.789062 110.414062 120.527344 L 110.414062 120.679688 L 113.523438 120.691406 L 113.523438 120.535156 C 113.527344 118.90625 112.832031 117.351562 111.609375 116.269531 C 111.019531 115.746094 110.332031 115.363281 109.601562 115.132812 L 109.601562 111.574219 L 106.492188 111.574219 L 106.492188 115.089844 C 103.800781 115.820312 102 118.433594 102.261719 121.351562 C 102.542969 124.519531 105 125.664062 107.609375 126.429688 Z M 107.609375 126.429688 " fill-opacity="1" fill-rule="nonzero"/></svg>